<svg id="Layer_1" data-name="Layer 1" xmlns="http://www.w3.org/2000/svg" viewBox="0 0 3244.29543 725.31224"><title>logo</title><path d="M76.94605,674.65141Q2.1941,624.00937,2.21289,526.67475q0-8.01786,2.00289-28.09066H211.86631q-3.00434,34.11813,14.04533,53.177t52.17551,19.06509q29.06707,0,46.64251-13.04388,17.53788-13.03136,17.5504-37.11622,0-28.09065-25.562-46.1543-25.61206-18.06363-82.76979-42.136-57.19527-24.07233-94.299-45.64105-37.12248-21.5562-64.20543-59.18566Q48.34841,289.9196,48.35467,233.7508q0-73.231,36.11476-125.90722,36.10851-52.67,100.82092-80.25365Q250.01528.00627,333.267,0q75.22135,0,133.41809,23.57161,58.1717,23.58414,90.78139,67.723,32.59717,44.14514,32.62221,104.326a215.80514,215.80514,0,0,1-1.00145,24.08486H377.4059a77.322,77.322,0,0,0,1.00145-14.04533q0-24.07234-15.04678-37.61694-15.0593-13.55712-41.13453-13.54461-27.07669,0-43.63816,13.54461-16.56147,13.53834-16.54895,37.61694,0,26.10027,25.587,44.63961,25.57452,18.57061,79.74041,43.63815,58.17168,27.09547,95.81367,50.66082,37.62945,23.58414,64.69363,62.70325,27.11424,39.11286,27.0892,96.30188,0,63.204-34.09935,113.86479-34.13691,50.66083-97.31584,79.25221-63.204,28.59763-149.46632,28.59138Q151.65417,725.31224,76.94605,674.65141Z" transform="translate(-2.21289)" style="fill:#232123"/><path d="M1591.76342,198.63749q49.68441,48.14467,49.67189,133.41809,0,33.10416-5.03228,58.18421l-58.18421,328.04978h-195.6081l53.15192-301.962q2.02794-16.03572,2.02794-22.06945,0-35.11331-20.57979-54.17841-20.57978-19.04006-57.68348-19.05257-40.14561,0-68.72446,21.56871-28.57887,21.575-38.60588,60.68784l-56.18131,315.0059H999.38107l53.177-301.962q1.99038-8.01786,2.0029-24.07234,0-34.09936-20.57979-52.67624-20.54223-18.55185-56.657-18.55185-42.136,0-71.22809,23.57161-29.14216,23.58414-39.13163,66.709L812.786,718.28957H615.15L715.47017,155.5H912.10476l-13.04388,73.231q31.095-36.10851,76.73606-57.18276,45.66609-21.068,100.82092-21.068,62.19,0,105.8532,27.0892,43.63815,27.0767,62.69073,76.23534a300.17243,300.17243,0,0,1,92.3086-74.73316q54.15338-28.59763,113.339-28.59138Q1542.10406,150.48029,1591.76342,198.63749Z" transform="translate(-2.21289)" style="fill:#232123"/><path d="M1762.811,283.9109q43.11239-65.21313,103.82526-100.32019,60.68784-35.11332,127.91012-35.11332,58.17169,0,96.3144,23.07089,38.08011,23.09592,53.15192,62.20252L2158.058,155.5H2354.6926l-99.31874,562.78952H2058.73927l14.04533-78.25075q-29.10462,39.13164-76.23534,62.20252-47.16827,23.07715-104.326,23.0709-88.29027,0-141.45472-58.68494-53.177-58.69744-53.177-160.00657a437.59518,437.59518,0,0,1,6.03373-70.22664Q1719.661,349.11778,1762.811,283.9109Zm349.10525,124.39253q0-42.136-23.58413-65.20687-23.58414-23.07716-60.68783-23.07089-44.16393,0-79.23969,30.59428-35.15087,30.60679-44.13888,85.77414a146.66378,146.66378,0,0,0-3.02938,29.0921q0,42.136,23.58413,65.20688Q1948.367,553.789,1985.50828,553.764q44.12637,0,79.26472-31.095,35.07577-31.095,44.13888-86.27486A143.9798,143.9798,0,0,0,2111.91623,408.30343Z" transform="translate(-2.21289)" style="fill:#232123"/><path d="M2739.90011,179.57239q52.163-29.08584,106.35392-29.0921l-36.12729,209.66595h-55.17986q-62.19,0-97.31584,23.07089-35.11332,23.09592-47.14323,80.26616l-45.14033,254.80628h-197.636L2468.03163,155.5h196.63459l-18.05113,102.32309Q2687.73711,208.68327,2739.90011,179.57239Z" transform="translate(-2.21289)" style="fill:#232123"/><path d="M3081.99522,507.62218a61.8319,61.8319,0,0,0-1.00145,12.02991q0,16.07325,9.51376,23.58413,9.53881,7.51087,31.62077,7.52339h57.18276l-30.11859,167.53H3062.9176q-183.56567,0-183.56567-154.48608,0-26.0815,6.0087-59.19818l33.0979-185.58109h-69.20015L2878.35048,155.5h69.20016l24.08485-136.435h197.636L3145.18667,155.5h101.32164l-29.0921,163.52417H3116.09457Z" transform="translate(-2.21289)" style="fill:#232123"/></svg>